<svg xmlns="http://www.w3.org/2000/svg" width="783.697" height="192.405">
  <path d="M689.64 55.002h-12.132L716.19 92.93l45.267 44.374h12.952l-84.77-82.302z"/>
  <path fill="#F26531" d="M671.298 137.304h12.952l45.268-44.375L768.2 55h-12.13l-84.772 82.302z"/>
  <path d="M10.536 137.312h9.092V18.072h-9.092v119.24zm70.49-83.677c-32.525 0-45.8 9.52-45.8 32.857v19.345c0 23.346 13.275 32.855 45.8 32.855h21.24c32.535 0 45.8-9.51 45.8-32.855V86.493c0-23.337-13.266-32.857-45.8-32.857h-21.24zm25.722 78.726H76.546c-15.94 0-32.236-3.24-32.236-27.38V87.37c0-24.14 16.297-27.398 32.236-27.398h30.202c15.948 0 32.237 3.258 32.237 27.398v17.607c0 24.14-16.29 27.388-32.237 27.388zm54.857-77.34v56.68c0 17.92 11.336 27 33.712 27h22.28c19.878 0 33.652-3.87 38.062-14.782l.73-1.79v15.19h8.04v-82.3h-9.09v47.2c0 23.39-10.2 30.146-45.52 30.146h-3.8c-29.555 0-35.337-8.893-35.337-24.273V55.02h-9.09zm228.477 85.17h-13.817v-13.98h-.34c-4.314 10.71-16.402 15.37-31.94 15.37H323.26c-26.926 0-45.748-6.74-45.748-37.11V88.91c0-28.14 10.882-38.158 46.613-38.158h22.62c16.918 0 25.032 3.974 28.132 13.127h.35V15.19h14.856v124.997zm-97.722-35.91c0 17.1 5.34 25.22 29.522 25.22h24.167c22.09 0 29.17-9.32 29.17-25.38V87.37c0-21.066-12.25-24.524-32.27-24.524h-20.04c-20.36 0-30.55 3.81-30.55 24.178v17.258zm106.55-89.09h106.7c25.897 0 33.146 13.47 33.146 27.8V53.7c0 8.98-5.005 18.123-20.193 19.686v.682c13.284.69 25.03 5.703 25.03 24.69v14.848c0 17.44-15.545 26.585-36.253 26.585H398.91v-125zm122.93 26.94c0-11.39-12.603-13.116-17.79-13.116h-88.212v39.88h87.355c9.145 0 18.647-2.93 18.647-15.365v-11.4zm4.84 58.527c0-15.53-8.64-17.95-24.01-17.95h-86.832v43.67h89.426c15.712 0 21.415-5.69 21.415-16.74v-8.986zm72.865-47.02c-32.542 0-45.817 9.52-45.817 32.857v19.344c0 23.348 13.275 32.857 45.817 32.857h21.232c32.542 0 45.81-9.51 45.81-32.852V86.5c0-23.337-13.268-32.857-45.81-32.857h-21.232zm25.72 78.726h-30.218c-15.93 0-32.22-3.247-32.22-27.387v-17.61c0-24.14 16.29-27.397 32.22-27.397h30.22c15.938 0 32.227 3.255 32.227 27.395v17.607c0 24.14-16.288 27.39-32.228 27.39zm-266.782 43.25H9.776v-27.33h376.87m12.266 0H774.45v27.338H370.884"/>
  <path fill="#F26531" d="M671.298 137.312h12.952l45.268-44.374S768.2 55.01 768.2 55.015h-12.13l-84.772 82.297z"/>
</svg>
